<svg xmlns="http://www.w3.org/2000/svg" width="24" height="24" viewBox="0 0 24 24" fill="none" stroke="#2d6a4f" stroke-width="2" stroke-linecap="round" stroke-linejoin="round">
  <path d="M15 2v10l4-4"></path>
  <path d="M10.5 9.5 7 11V2"></path>
  <path d="M11.5 9.5 15 11"></path>
  <path d="M3 10a2 2 0 1 1 0-4 2 2 0 0 1 0 4Z"></path>
  <path d="M18 21a3 3 0 1 1 0-6 3 3 0 0 1 0 6Z"></path>
  <path d="M19 10a2 2 0 1 1 0-4 2 2 0 0 1 0 4Z"></path>
  <path d="M2 17a2 2 0 1 1 4 0 2 2 0 0 1-4 0Z"></path>
  <path d="M12 12a2 2 0 1 1 0 4 2 2 0 0 1 0-4Z"></path>
  <path d="M11 2a2 2 0 1 1 0 4 2 2 0 0 1 0-4Z"></path>
</svg>